<?xml version="1.0" standalone="no"?>
<!DOCTYPE svg PUBLIC "-//W3C//DTD SVG 20010904//EN"
 "http://www.w3.org/TR/2001/REC-SVG-20010904/DTD/svg10.dtd">
<svg version="1.0" xmlns="http://www.w3.org/2000/svg"
 width="700.000000pt" height="405.000000pt" viewBox="0 0 700.000000 405.000000"
 preserveAspectRatio="xMidYMid meet">

<g transform="translate(0.000000,405.000000) scale(0.100000,-0.100000)"
fill="#000000" stroke="none">
<path d="M2287 2488 c-133 -172 -206 -284 -279 -429 l-42 -84 -6 35 c-9 52
-25 76 -65 94 -92 44 -189 -64 -156 -173 22 -75 88 -106 154 -72 20 10 37 17
37 14 0 -3 -7 -29 -16 -59 -8 -29 -21 -86 -27 -126 l-13 -73 -55 115 c-90 186
-217 368 -385 550 -83 91 -118 118 -69 54 143 -186 304 -480 365 -664 120
-362 117 -755 -10 -1327 -17 -76 -33 -147 -36 -158 -15 -51 17 10 61 115 91
217 147 403 181 598 9 56 21 102 26 102 4 0 8 -6 8 -14 0 -43 213 -517 226
-503 2 2 -5 33 -16 68 -203 631 -229 1046 -94 1449 41 120 148 345 224 470 29
47 54 88 57 93 2 4 2 7 -1 7 -3 0 -34 -37 -69 -82z"/>
<path d="M4493 2100 c-35 -5 -75 -15 -90 -22 -25 -12 -28 -18 -25 -58 2 -25 5
-246 8 -491 l5 -446 62 -6 c34 -3 103 -11 152 -18 132 -17 370 -7 464 21 153
44 273 122 347 227 70 97 88 157 89 293 0 109 -2 119 -31 180 -75 157 -253
261 -518 306 -110 18 -378 26 -463 14z m515 -154 c184 -49 271 -222 217 -431
-47 -180 -207 -320 -396 -348 -91 -13 -126 -5 -140 30 -6 17 -9 155 -7 368 3
364 3 366 53 385 33 14 216 11 273 -4z"/>
<path d="M2650 2094 c-78 -8 -140 -26 -149 -43 -6 -10 -6 -55 1 -116 5 -55 11
-261 12 -458 2 -295 5 -361 17 -368 19 -12 263 -11 275 1 10 10 9 522 -1 566
-5 24 10 285 21 351 5 34 3 43 -12 51 -23 12 -116 21 -164 16z"/>
<path d="M6580 2093 c-19 -3 -40 -9 -46 -14 -8 -7 -14 -114 -19 -344 -8 -369
-10 -380 -63 -302 -82 120 -277 436 -297 481 -13 29 -26 78 -30 109 -6 49 -11
58 -32 63 -46 12 -316 -1 -348 -17 l-30 -14 -6 -170 c-4 -94 -10 -309 -14
-478 l-8 -308 124 3 124 3 -1 323 c-1 177 0 322 2 322 1 0 80 -111 175 -247
292 -420 286 -411 323 -418 60 -12 281 -1 299 14 15 12 17 40 17 210 0 170 11
384 36 688 l7 82 -27 11 c-27 10 -115 11 -186 3z"/>
<path d="M3260 2070 c-41 -4 -92 -14 -112 -23 l-38 -16 8 -108 c9 -142 9 -613
-1 -730 l-8 -92 27 -17 c35 -24 263 -31 446 -15 315 29 523 98 591 199 38 56
42 94 17 147 -28 57 -77 87 -190 116 -47 12 -92 23 -100 26 -8 2 24 17 72 33
156 53 228 116 228 200 0 134 -193 248 -472 280 -94 11 -355 11 -468 0z m495
-141 c72 -13 137 -49 158 -86 17 -29 17 -34 3 -61 -20 -39 -63 -64 -162 -95
-128 -40 -268 -63 -300 -48 l-27 12 5 124 c5 139 14 160 72 168 41 6 187 -2
251 -14z m-60 -464 c156 -10 228 -76 161 -148 -43 -46 -112 -74 -256 -102 -91
-18 -152 -19 -168 -3 -13 13 -17 225 -4 244 14 23 45 24 267 9z"/>
</g>
</svg>
